/* XPM */
static char *result[] = {
/* columns rows colors chars-per-pixel */
"60 60 230 2 ",
"   c #693C07",
".  c #784508",
"X  c #794C16",
"o  c #725115",
"O  c #746A0F",
"+  c #7F7A12",
"@  c #734B24",
"#  c #864B07",
"$  c #974F01",
"%  c #805F0D",
"&  c #955306",
"*  c #9C5202",
"=  c #9D5B03",
"-  c #95550B",
";  c #9C5B0C",
":  c #824B13",
">  c #8D4D11",
",  c #834D19",
"<  c #8C5719",
"1  c #9D5C13",
"2  c #985619",
"3  c #945C1B",
"4  c #A74F00",
"5  c #A65502",
"6  c #AA5501",
"7  c #A35903",
"8  c #AA5804",
"9  c #A5560A",
"0  c #A9560A",
"q  c #A3590C",
"w  c #AB5D0E",
"e  c #B15602",
"r  c #A25C12",
"t  c #A85C18",
"y  c #926E0F",
"u  c #8B641F",
"i  c #9E6216",
"p  c #9C6318",
"a  c #A96108",
"s  c #B26104",
"d  c #BC6602",
"f  c #BF6904",
"g  c #B4660C",
"h  c #BE660D",
"j  c #BD6A0C",
"k  c #BB700B",
"l  c #A16114",
"z  c #A96515",
"x  c #A3631C",
"c  c #AA641C",
"v  c #AE6A1C",
"b  c #B46513",
"n  c #BD6614",
"m  c #B66A14",
"M  c #BD6914",
"N  c #B7671D",
"B  c #BC661B",
"V  c #B56C1C",
"C  c #BB6B1B",
"Z  c #B5711D",
"A  c #BB711A",
"S  c #815524",
"D  c #895623",
"F  c #955B23",
"G  c #935D2B",
"H  c #9D6124",
"J  c #976428",
"K  c #947E27",
"L  c #9B6436",
"P  c #A56623",
"I  c #AA6522",
"U  c #AC6B23",
"Y  c #A86826",
"T  c #A46A2A",
"R  c #AD6B2B",
"E  c #BD6721",
"W  c #B56C24",
"Q  c #BA6C23",
"!  c #B36E2A",
"~  c #BA6E2B",
"^  c #AE7127",
"/  c #B47224",
"(  c #BB7021",
")  c #B3712B",
"_  c #BA722C",
"`  c #A87231",
"'  c #B37131",
"]  c #BC7735",
"[  c #BC7B37",
"{  c #C46401",
"}  c #C26A03",
"|  c #C36A0E",
" . c #C36717",
".. c #C06F26",
"X. c #CB7C23",
"o. c #C3752B",
"O. c #C47729",
"+. c #CB7B2A",
"@. c #D37F2F",
"#. c #C47D32",
"$. c #CD7D32",
"%. c #C27938",
"&. c #8B6A4B",
"*. c #94794B",
"=. c #AC764A",
"-. c #A9774C",
";. c #BB7E42",
":. c #7D9311",
">. c #7EA601",
",. c #7EAA01",
"<. c #7FA30B",
"1. c #7CBB0C",
"2. c #85841C",
"3. c #8A951B",
"4. c #85AD04",
"5. c #89AE05",
"6. c #85A509",
"7. c #84AA0D",
"8. c #8BAE0A",
"9. c #91AA07",
"0. c #91AE0B",
"q. c #9AAC0D",
"w. c #85B102",
"e. c #8AB205",
"r. c #8EB902",
"t. c #85B30A",
"y. c #8CB40A",
"u. c #85BB0C",
"i. c #8FB80B",
"p. c #90B705",
"a. c #92BB04",
"s. c #91B40D",
"d. c #98B00B",
"f. c #92BA0C",
"g. c #85AC11",
"h. c #86A817",
"j. c #8AAE14",
"k. c #89AD1C",
"l. c #94AD1B",
"z. c #98A818",
"x. c #8DB312",
"c. c #86B61B",
"v. c #8DB21C",
"b. c #92B513",
"n. c #9BB516",
"m. c #93BA13",
"M. c #93B41C",
"N. c #94B91A",
"B. c #A7AA0E",
"V. c #A5B619",
"C. c #92932A",
"Z. c #A9883A",
"A. c #BB8337",
"S. c #A9963A",
"D. c #85A822",
"F. c #8CAE23",
"G. c #8DAC2B",
"H. c #9EAC27",
"J. c #8EB122",
"K. c #8EB12E",
"L. c #93B622",
"P. c #95B727",
"I. c #9AB524",
"U. c #9EB72C",
"Y. c #9BBC2B",
"T. c #8EAA34",
"R. c #99AA38",
"E. c #96B639",
"W. c #A3B72E",
"Q. c #BEB82A",
"!. c #ADA438",
"~. c #ACAD39",
"^. c #A4B434",
"/. c #A5B637",
"(. c #CD8324",
"). c #CB822C",
"_. c #D3822B",
"`. c #D48429",
"'. c #CD8334",
"]. c #C5823B",
"[. c #C88738",
"{. c #CB843B",
"}. c #D28335",
"|. c #D2843B",
" X c #D08C3E",
".X c #CBBB2B",
"XX c #D2B436",
"oX c #96C00D",
"OX c #98C408",
"+X c #88C118",
"@X c #99C119",
"#X c #9FC33E",
"$X c #9E8644",
"%X c #BA8445",
"&X c #AD9146",
"*X c #B88955",
"=X c #B79B5B",
"-X c #97AD4B",
";X c #9BBA44",
":X c #96B053",
">X c #A5A848",
",X c #B8A34B",
"<X c #A8B948",
"1X c #B9B745",
"2X c #B0AA5E",
"3X c #ACB655",
"4X c #B3A56B",
"5X c #B8B666",
"6X c #CA8440",
"7X c #C5864A",
"8X c #C5954F",
"9X c #C99A59",
"0X c #C8AE51",
"qX c #9FC049",
"wX c #A3C44B",
"eX c #A7C656",
"rX c #B0CB5F",
"tX c #BBDC69",
"yX c #B4CC79",
"uX c #BBD679",
"iX c #C0DF78",
"pX c #B8CB8D",
"aX c #C2DB8B",
"sX c #C6DE9A",
"dX c #CCEB84",
"fX c #CDE495",
"gX c #CDE995",
"hX c #CBD8BC",
"jX c #D3E6B4",
"kX c #E8FACA",
/* pixels */
"y.y.y.y.y.y.y.y.y.y.e.e.y.f.x.y.y.y.y.e.y.f.y.y.y.y.y.i.y.y.y.y.8.e.e.y.y.y.y.y.f.<.T.aXgXeXk.f.y.y.y.y.y.y.y.y.y.y.y.y.",
"y.y.y.y.y.e.y.y.y.y.e.y.y.x.y.y.i.y.y.y.y.y.y.y.e.y.x.y.y.y.y.y.y.y.y.e.e.t.y.y.a.4.h.qXwXK.g.e.y.y.y.y.y.y.y.y.y.y.y.y.",
"y.y.y.y.y.y.y.y.y.y.y.y.y.i.y.e.y.y.y.e.y.i.y.e.y.y.y.y.y.y.y.y.e.e.y.e.y.8.e.y.r.r.t.7.7.x.i.e.y.y.y.y.y.y.y.y.y.e.y.y.",
"y.y.y.y.y.y.y.y.f.y.y.y.y.y.y.e.x.y.y.y.i.x.y.y.y.y.y.y.y.y.y.y.t.e.8.y.y.y.y.y.w.i.oXw.r.f.oXy.y.y.y.y.y.y.y.y.y.y.y.y.",
"y.y.y.y.y.y.y.y.y.i.y.y.y.y.y.y.y.y.e.y.y.x.y.y.y.y.i.y.y.y.y.y.t.4.e.e.y.y.i.x.7.y.i.i.r.e.y.x.y.y.e.y.y.y.y.y.y.y.y.y.",
"y.y.y.y.y.y.y.y.y.y.m.y.y.w.y.y.i.y.y.e.y.i.y.y.y.y.y.y.i.y.y.y.4.8.e.e.y.y.i.f.v.t.8.y.e.w.y.x.y.y.y.y.y.t.y.y.y.y.y.y.",
"e.y.y.y.y.y.e.y.e.y.y.y.e.t.y.x.y.y.y.y.y.x.y.e.y.y.i.y.y.y.y.y.e.e.t.y.y.y.y.y.x.y.y.8.x.y.r.r.y.y.y.y.y.y.y.y.y.y.y.y.",
"y.y.y.y.y.y.y.y.e.y.x.y.y.e.y.f.y.y.y.y.y.i.i.y.e.y.y.y.y.y.y.y.y.y.y.y.e.e.e.e.e.f.m.y.y.m.r.w.y.y.y.y.y.y.y.y.y.y.e.y.",
"4.r.e.w.@X@Xi.4.-X;Xk.4.OXf.,.N.y.y.y.y.y.y.y.y.r.>.K.iXdX#X,.e.e.y.u.u.e.y.u.u.7.e.e.y.y.y.y.y.y.t.y.y.y.i.y.i.y.y.y.y.",
"i.x.v.g.<.g.y.i.pXfXrXF.m.y.,.j.y.y.e.y.y.y.e.e.OX7.F.;XqXK.e.a.s.i.u.t.5.s.y.,.y.y.y.y.y.y.y.y.e.y.y.y.y.y.x.y.y.y.y.y.",
"y.x.#XeXE.k.y.w.hXkXfXE.k.m.y.y.t.e.e.e.e.e.y.e.m.U.<X3X5X5X5X4X4X2X3XY.q.d.d.8.y.y.y.f.x.y.y.e.e.y.y.y.y.y.y.f.y.y.y.y.",
"t.7.wXtXqXJ.i.,.pXfXuXG.g.x.i.s.e.x.I./.<X1X,X9X9X7X7X7X;.] ] ] %.%X%X%X8X0X.Xn.y.i.y.i.y.y.e.5.e.e.y.y.y.y.y.y.y.y.y.y.",
"f.4.J.#Xk.4.OXw.k.I.N.5.y.I.E.<X2X2X=X*X%X;.%.] o.o.+._.@._.`._.@.}.}.$.#.[ %X*X=X<X^.I.b.e.w.4.y.e.y.y.y.y.y.y.y.y.y.y.",
"f.4.4.x.>.4.r.r.M./.R.1X!.,X].A.[ A.%.6X6X{.6X6X{.'.'.+.X.X.`._._.'.'.'.{.[.[.[.A.A.A.A.!.~./.I.x.y.y.y.y.y.y.s.y.y.y.y.",
"e.e.i.r.y.i.y.4.<X&.L ' +.`.`.(.(.).'.'.'.'. X6X{.|.'.}._.X.X.X.X.).[.).{.[.`.(.).).(.(.#.[ =.*X,X~.W.I.y.y.y.y.y.y.y.y.",
"7.N.m.e.e.f.x.k./.&.F t Q  .).'.'.'.'.$.'.}.%.].{.{.'.).'.}._.@.).).#.[ ].$.(.(. X|.|.'.6X6X7X%X) v U Z.U.y.y.y.y.y.y.y.",
"y.y.y.y.y.y.y.y.x.*.F 2 4 8 s C O.]. X[.'.'.'.{.{.[.$.$.|.'.'.'.'.'.'.'.{.'.@.+.#.%...Q Q _ P v k j k ` W.f.x.y.y.y.y.y.",
"y.y.y.y.y.y.y.y.8.-.> t 6 6 5 6 g V / #. X6X|.}.$.$.|.6X'.'.).'.}.}.}.$.+.o.v z x c C | j m / W g M N Z.I.i.y.y.y.y.f.i.",
"y.y.e.y.y.y.y.y.e.$X2 t 8 e e 6 4 $ 7 z ~ o.$.@.}.|.|.$.'.|.|.}.).+...M n g V U Y W j } { d Q V f j b Z.L.i.y.e.y.y.y.i.",
"y.y.y.y.y.y.y.y.t.&X> 2 6 6 6 6 5 0 0 6 4 4  ...@.|.@.|.{.|.#._ Q C b g n B B V ~ Q | { { | b m } } s S.x.i.e.e.e.y.e.y.",
"y.y.y.y.y.y.y.y.i.>X: t 5 5 5 5 0 0 0 6 6 e 6 6 8 E %.$.o.N N N V B B B B h h n B .. . .{ {  .C } { s S.x.y.y.e.7.e.e.y.",
"y.y.y.e.y.y.y.e.y.-X: r 7 5 5 8 9 0 0 8 8 6 5 5 6 4 6 B B B n n n n n h h n f j B B B  .{ { C C C ..a !.i.y.y.e.w.e.7.e.",
"y.y.y.y.y.y.y.y.8.-X: w 5 8 8 5 0 9 0 7 9 9 9 0 5 5 6  .n n n h n h h  .M h f j B E E B } } C C .._ = ~.y.x.y.e.e.y.y.y.",
"y.y.y.y.y.y.y.e.s./.: w 7 5 5 5 9 9 9 8 9 9 5 9 5 6 6 B n n B n h h M j n M f j N E N  .} } n E E / i ~.f.f.y.y.y.y.y.y.",
"y.y.5.5.5.5.y.s.m./.: t 9 7 7 8 9 9 9 7 0 7 9 9 5 5 6  .N n B n  .n h M n n f j C N ..C } f C C B ~ i ~.i.y.i.x.y.y.y.y.",
"s.e.p.e.e.y.e.y.+XE.: w 7 7 8 9 t q 9 5 q 9 9 0 5 5 6 B B  . .B j M M n n  .j j C E E E j } M Q E ~ i ~.i.i.y.i.y.y.y.y.",
"y.e.s.e.s.e.s.y.c.c.: w 9 7 7 7 q q 0 5 q 7 q 0 4 5 6 B B B n n n h  .C M M j M C Q Q  .M j C Q E ~ t ^.y.y.y.y.y.y.y.y.",
"y.s.s.y.s.s.s.e.z.l., r 7 9 9 9 9 t q 7 q 0 9 7 5 5 8 B B C B n C M M  .M  .j M V Q C M M  .C C N _ H ^.y.e.e.e.y.y.y.y.",
"y.e.s.s.y.s.e.y.XXQ.X t q q q 9 2 q 9 q q q q q 5 8 8 C n B  .C C M M M M M M j Q C C C  .M A Q N ] H W.y.y.e.y.y.y.e.y.",
"s.s.y.y.e.s.y.s.XX.X, r q q q 9 9 q q 0 q r 7 9 9 7 8 N C C C M  .M C C C C M C V N C C A  .V ( V _ J /.m.y.i.x.y.y.y.y.",
"e.s.e.e.e.e.e.s.z.q.D r q ; 9 r r 1 q q r q 7 q 9 9 5 Q C C  .C M C C M M C C C C V C  .C C V A C _ L W.y.m.f.y.y.y.y.y.",
"s.e.5.5.5.e.e.s.1.1.J 1 r q ; q r r q 9 q 1 q q 9 9 5 N C C B C M C M C C C C C / W C A N Q C V Z ) L W.y.y.y.y.y.y.y.y.",
"y.y.e.5.e.y.y.w.y.i.K = r q ; r r r q q q 1 q r 9 9 9 W Q C C C C M C C Q C C V ( W C C C Q C ( Z ) -.I.5.e.b.G.y.y.y.y.",
"m.x.t.e.x.y.x.N.y.y.C.& t 1 q q 1 r q q q q r q 9 9 5 W Q C N C M C A C C C A C W Q A C Q Q A / Z ^ -.M.e.p.s.8.y.y.y.y.",
"L.g.4.y.i.e.x.v.y.y.C.$ x 1 r 1 1 1 r 7 1 q r r q 7 5 W Q C C N M C C C C C C C Q Z C Z Q ~ / Z Z U -.n.e.a.e.r.y.y.y.y.",
"j.e.y.a.a.y.t.g.i.y.H.# i ; r r i r 1 q ; q r q q ; 5 N C Q C C C Q C C C A V Z / Q A C Q ! Q A Z T *Xb.p.e.p.p.y.y.y.y.",
"w.f.a.w.e.OXf.e.y.y.z.# x ; 1 r r ; q q q 1 r 1 ; = * V V Q C C C C C A Q V A C W Q C Q ~ ~ V Z / U S.j.j.8.y.y.y.e.y.y.",
"e.f.i.w.4.w.f.e.e.e.l.. H & ; r ; = ; ; 1 1 r ; q ; = W / C C C Q  .M V A A m C / ~ ! W Q Q C V / u R.j.k.j.b.b.y.y.y.e.",
"e.4.J.#XE.D.w.r.e.y.8.O D 3 2 = ; l = 1 & 1 ; ; 2 ; = W C Q C C  .C A Q Z / A C Q Q ! _ Q V A V ^ G z.y.s.s.y.j.y.y.y.y.",
"r.7.;XpXuXE.g.i.e.y.8.8.:.o 3 1 1 & I 1 = a = = 7 ; 5 Q Q C C A Z / / _ ' ~ W Q Q / Q V V b v U T S e.p.a.p.e.4.y.y.y.y.",
"j.G.yXkXjX:X6.a.m.y.y.y.y.y.O F 3 t $ q 7 = = = = ; = W Q C A C Z Z / ) ' ' ~ W W v Z Z v v ! F u 2.y.y.y.t.e.e.y.y.e.y.",
"t.J.3XuXyXT.6.a.i.x.y.y.y.y.e.6.D F 1 ; 7 = 7 * 7 = = Z / Z C Q Q Q / / R ^ ~ ! / U z l p J % 8.y.i.y.x.y.y.y.y.y.y.y.y.",
"e.x.L.P.k.8.r.p.f.i.y.y.y.y.y.w.y.S 3 - l 7 7 = = = = U / / W ! Q Q ( Z W Z I I T ` H u y 6.e.e.f.x.x.y.y.y.i.y.y.y.y.y.",
"e.y.y.e.5.e.p.r.x.y.y.y.y.y.e.e.y.y.. 3 & q ; = ; = ; U ) ) ) ! / W V j d g ! R J < :.3.u.y.y.e.y.i.i.y.y.y.y.y.y.y.y.y.",
"y.e.8.y.p.e.e.s.x.y.y.e.x.y.y.y.y.y.y.+ F 2 3 = i ; = V / ! ) ) ) W V g s g P , o 3.y.y.x.y.y.y.y.y.y.y.y.y.e.e.y.y.y.y.",
"N.8.4.s.s.5.y.M.y.y.y.y.i.y.y.y.y.y.y.y.:.S < 3 - = 7 V Q W W R R T I x q -   3.N.y.i.y.y.y.y.y.y.y.y.y.e.8.e.e.y.y.y.y.",
"f.e.e.y.y.8.y.y.i.y.e.y.y.i.y.y.y.e.y.7.e.O @ J # 1 7 a Q C E I T L G , X 2.l.m.m.i.x.i.y.y.y.y.y.y.y.y.y.y.y.t.y.y.y.y.",
"5.s.f.s.y.s.y.e.y.y.e.y.y.y.y.y.y.e.e.y.y.e.o . J 2 2 ~ Q t t t 3 o @ *.R.s.m.e.m.y.i.i.y.y.y.y.f.i.y.x.y.y.y.y.y.y.y.e.",
"e.y.e.e.t.y.8.y.4.5.e.e.y.e.4.4.a.<.-XeX<.,.oX2.  L > T R c F : o &.R.x.x.y.y.0.y.y.y.y.y.y.y.y.4.a.L.T.a.s.F.f.y.y.y.y.",
"s.y.y.y.y.e.e.y.4.t.e.y.y.e.e.7.w.J.uXdXwXt.y.c.C.  < P -   @ *.-X5.y.e.t.t.y.8.y.y.y.y.y.y.y.y.e.e.j.G.p.p.l.e.y.y.y.y.",
"y.e.y.y.y.e.e.7.8.e.y.y.y.y.e.e.w.v.rXtXL.>.e.x.b.l.    X R.H.B.9.0.8.7.4.8.y.y.y.y.y.y.y.y.y.y.M.e.y.b.e.p.M.r.y.y.e.y.",
"e.e.e.e.e.e.e.e.y.y.y.y.x.y.y.e.oX7.h.G.7.4.e.t.m.x.l.T.J.y.q.B.V.d.0.e.t.t.u.x.e.y.y.y.y.y.e.y.L.e.a.a.e.p.m.y.y.y.y.y.",
"4.4.t.y.y.y.y.y.y.y.y.y.y.y.y.y.i.4.g.v.x.m.i.4.8.8.y.u.t.x.V..XV.n.b.y.u.u.x.u.y.e.y.y.y.y.y.y.j.y.a.p.y.j.e.4.y.y.y.y.",
"e.e.y.f.x.i.i.m.y.y.y.y.y.y.y.y.e.x.i.m.x.y.e.y.t.y.8.x.1.t.V..XV.b.e.e.t.x.8.4.y.y.y.y.y.y.y.y.8.M.e.s.<X;Xe.e.y.y.y.y.",
"e.y.x.i.y.y.y.e.y.y.t.y.y.y.y.y.x.m.r.w.4.4.7.f.u.u.y.8.e.8.y.q.b.8.w.7.y.y.8.4.y.y.y.y.y.y.y.y.p.Y.4.M.aXyXy.y.y.y.y.y.",
"e.e.y.y.e.4.4.4.y.y.e.y.e.e.e.y.x.f.a.r.m.m.y.i.1.4.6.9.b.x.e.5.y.4.4.7.x.b.b.8.y.y.y.e.y.y.y.e.e.Y.>.k.jXsXs.y.y.y.y.y.",
"y.8.y.e.e.y.y.y.y.y.y.y.y.y.y.t.y.y.y.y.y.y.y.y.y.y.y.y.y.y.y.y.e.y.y.y.y.y.y.y.y.8.OXa.w.m.m.5.y.y.e.e.4.e.e.t.e.y.y.y.",
"y.y.y.y.y.e.y.e.y.y.y.y.y.y.y.y.y.y.y.y.y.y.y.y.e.y.y.y.y.y.y.y.y.e.y.y.y.x.y.y.b.4.e.e.6.j.e.r.y.y.e.e.e.e.e.e.y.y.y.y.",
"y.e.y.e.y.e.y.e.y.y.y.y.y.y.e.y.y.e.y.y.y.y.y.y.y.y.y.y.y.y.t.y.y.e.y.y.y.y.y.y.N.w.8.E.;XG.y.a.y.y.y.e.y.y.y.y.y.e.y.y.",
"y.8.t.y.7.y.y.y.y.y.y.y.y.y.y.y.y.y.y.y.y.y.y.y.y.y.y.y.e.y.y.y.y.y.y.y.y.y.y.y.m.e.j.yXaX;Xy.r.m.m.y.y.y.y.y.y.y.y.y.y."
};
