/* XPM */
static char *result[] = {
/* columns rows colors chars-per-pixel */
"60 60 245 2 ",
"   c #550600",
".  c #692400",
"X  c #702F00",
"o  c #753200",
"O  c #753B00",
"+  c #7C3B00",
"@  c #7D4101",
"#  c #764E17",
"$  c #785412",
"%  c #79710D",
"&  c #7D6D18",
"*  c #7C5E2D",
"=  c #803F00",
"-  c #834303",
";  c #894706",
":  c #8D4C02",
">  c #84450A",
",  c #8B4B0B",
"<  c #934D02",
"1  c #9B4E01",
"2  c #984E0D",
"3  c #8E5100",
"4  c #8A560B",
"5  c #8E520C",
"6  c #935303",
"7  c #9C5401",
"8  c #94540C",
"9  c #9B540B",
"0  c #9A5A0A",
"q  c #854B11",
"w  c #8C4B10",
"e  c #8B5617",
"r  c #945513",
"t  c #995813",
"y  c #94541A",
"u  c #9B561B",
"i  c #9D591D",
"p  c #A64F02",
"a  c #A35402",
"s  c #AB5503",
"d  c #A35C02",
"f  c #A95901",
"g  c #A6590A",
"h  c #A35A0E",
"j  c #A35B12",
"k  c #A75B19",
"l  c #8F6B18",
"z  c #A86202",
"x  c #A9640B",
"c  c #A86516",
"v  c #A2631B",
"b  c #AA621C",
"n  c #AB6A1D",
"m  c #B66B18",
"M  c #B46D1C",
"N  c #AF701E",
"B  c #B6721B",
"V  c #885821",
"C  c #965C25",
"Z  c #9E5B22",
"A  c #A45C23",
"S  c #9B6827",
"D  c #907329",
"F  c #A56622",
"G  c #AB6525",
"H  c #A46B22",
"J  c #AB6C23",
"K  c #AB692B",
"L  c #B66625",
"P  c #B46B23",
"I  c #B96D24",
"U  c #B46D2A",
"Y  c #B96D2C",
"T  c #A87125",
"R  c #B97327",
"E  c #A56930",
"W  c #B76C31",
"Q  c #B87734",
"!  c #CC7729",
"~  c #C77A2B",
"^  c #C47B35",
"/  c #CC7D32",
"(  c #C57A38",
")  c #D37D35",
"_  c #BB7C45",
"`  c #7B9F0E",
"'  c #7EA601",
"]  c #7EA705",
"[  c #7CBB0C",
"{  c #8B961E",
"}  c #84A507",
"|  c #85AD04",
" . c #89AE05",
".. c #84AB0D",
"X. c #8BAE0B",
"o. c #92AE09",
"O. c #85B103",
"+. c #8AB205",
"@. c #8EB902",
"#. c #86B30A",
"$. c #8CB40A",
"%. c #85BB0C",
"&. c #8FB80B",
"*. c #92B505",
"=. c #92BB04",
"-. c #92B40C",
";. c #92BA0C",
":. c #85AC11",
">. c #8AAD14",
",. c #86A818",
"<. c #89AD1C",
"1. c #97AD12",
"2. c #8DB312",
"3. c #89BC14",
"4. c #8DB21C",
"5. c #92B513",
"6. c #92BA12",
"7. c #93B51B",
"8. c #94B91A",
"9. c #9BBA1B",
"0. c #A0B10E",
"q. c #A5B619",
"w. c #BC8639",
"e. c #8CAE23",
"r. c #8BAB29",
"t. c #8EB122",
"y. c #8EB12E",
"u. c #92B523",
"i. c #99B922",
"p. c #95B52A",
"a. c #9BBC2B",
"s. c #94AD36",
"d. c #96B63A",
"f. c #A2B72A",
"g. c #BBBD2B",
"h. c #A8B839",
"j. c #D0841E",
"k. c #C98228",
"l. c #CC832C",
"z. c #D2842B",
"x. c #D3882A",
"c. c #C48433",
"v. c #CD8334",
"b. c #CA8737",
"n. c #CE833B",
"m. c #CC8A3D",
"M. c #D38434",
"N. c #D3833B",
"B. c #D78738",
"V. c #D48A3B",
"C. c #DD953C",
"Z. c #DA9A39",
"A. c #E98C3F",
"S. c #E8953D",
"D. c #E4993C",
"F. c #CBBB2B",
"G. c #97C20B",
"H. c #8DC118",
"J. c #9FC33E",
"K. c #A5C33B",
"L. c #B6884B",
"P. c #BA9748",
"I. c #A98B58",
"U. c #B98C57",
"Y. c #BA9759",
"T. c #94AE4F",
"R. c #9BBA44",
"E. c #96B053",
"W. c #B6A84C",
"Q. c #A8BC46",
"!. c #B3B647",
"~. c #B8A758",
"^. c #ACBA58",
"/. c #B9B857",
"(. c #B88865",
"). c #BB9964",
"_. c #B9AB65",
"`. c #CA8644",
"'. c #D28443",
"]. c #D38B45",
"[. c #D78A48",
"{. c #C79549",
"}. c #DD9544",
"|. c #DD9A44",
" X c #D3964A",
".X c #D5934C",
"XX c #DD944B",
"oX c #DD9B4B",
"OX c #C38C56",
"+X c #D98B53",
"@X c #C99857",
"#X c #CD925B",
"$X c #DC9A53",
"%X c #D49859",
"&X c #DD9B5C",
"*X c #E58F46",
"=X c #E39544",
"-X c #EA9444",
";X c #E29A43",
":X c #E3964C",
">X c #EB974A",
",X c #E39A4C",
"<X c #E39652",
"1X c #E49B53",
"2X c #E69856",
"3X c #E99B53",
"4X c #E29C5C",
"5X c #D9A04A",
"6X c #C7AA57",
"7X c #D4A359",
"8X c #E5A053",
"9X c #EDA452",
"0X c #E5A25B",
"qX c #C89A65",
"wX c #DC9E62",
"eX c #D59B68",
"rX c #CA9973",
"tX c #D29E77",
"yX c #CDB56F",
"uX c #C9A17A",
"iX c #DDA776",
"pX c #E5A364",
"aX c #9FC049",
"sX c #A8C349",
"dX c #B2C248",
"fX c #A8C557",
"gX c #B7C75C",
"hX c #B3CD6B",
"jX c #BBD679",
"kX c #C8C76A",
"lX c #C7CE79",
"zX c #D4C67C",
"xX c #C5E47D",
"cX c #BBAA85",
"vX c #D6B28A",
"bX c #E8BA88",
"nX c #B8CB8D",
"mX c #CAD991",
"MX c #E7CB95",
"NX c #CCEB84",
"BX c #CDE595",
"VX c #D4D7B4",
"CX c #EBDBA5",
"ZX c #D3E6B4",
"AX c #E8FACA",
/* pixels */
"$.$.$.$.$.+.$.$.$.$.X.+.&.2.$.$.&.$.$.$.$.&.$.#.$.$.$.$.&.&.$.$. .$.+.$. .$.$.$.G.] s.nXBXfX,.6.#.$.$.$.$.$.$.$.$.$.$.$.",
"$.$.$.$.$.$.$.$.$.$.+.$.&.&.$.$.&.$.X.$.&.-.$.$.X.$.-.$.&.$.$.X.$.$.$.$.$.$.$.| @.| <.aXfXy.:.@.$.$.$.$.$.$.$.$.$.$.$.$.",
"$.$.$.$.$.$.$.$.$.$.#.$.$.$.$.+.$.$.+.$.&.$.$.$.$.$.$.$.&.#.$.$.#.$.$.$.$.$.$.$.O.@.O... .2.;.=.$.$.$.$.$.$.$.#.$.$.$.$.",
"$.$.$.$.$.$.$.$.&.&.-.$.$.$.$.X.$.$.$.$.$.$.$.$.$.$.$.$.$.$.$.+.O.+.| $.+.$.$.$.O.&.G.O.@.;.6.+.$.$.$.$.$.$.+.$.+.$.$.$.",
"$.$.$.$.$.$.$.$.$.&.$.$.$.$.$.$.$.$.$.$.$.$.$.$.$.$.&.$.&.$.$.$.| | +.+.$.&.2.&.#.$.;.=.+.+.$.#.$.$.$.$.$.$.$.$.$.$.$.$.",
"$.+.$.$.$.$.$.+.$.$.&.$.$. .$.#.&.$.$.+.$.&.&.X.$.$.$.$.$.$.$.$.| | +.$.$.&.;.&.2.>.X.$.$.+.$.5.$.$.$.$.$.$.$.$.$.$.$.$.",
"$.$.$.$.$.$.$.$.$.$.&.$.$. .$.&.&.$.$.$.$.$.$.$.X.$.$.$.$.$.$.$. .$.+.$.$.$.$.$.5.5.#.$.#.&.$.+.$.$.$.$.$.+.$.$.$.$.$.$.",
"$.$.$.$.$.$.$.$.| $.&.$.$.$.&.;.&.#.X.$.$.&.&.#.$.$.&.$.$.$.$.$.&.$.$.$.$.| +.O.O.;.5.#.$.;.=.O.$.$.$.$.$.$.$.$.$.$.$.$.",
"| @.+.O.H.H.;.| T.R.>.| G.;.] 8.$.#.$.$.$.$.$.$.=.' r.xXxXd.] @. .$.&.%.O.-.&.%.| +.$.$.$.$.$.$.+.O.$.$.$.$.&.$.$.$.$.$.",
"&.2.4.:.` ..;.-.nXBXgXt.6.&.] #.$.O.$.&.$.+.$.$.=.| e.Q.Q.p.$.=.-.&.%.#. .*.+.O.$.$.$.#.$.$.&.$.$.$.$.$.$.$.$.$.$.$.$.$.",
"#.>.J.fXd.<.#.O.VXAXBXd.<.5.X.X.$.+.O.O.O.$.+.$.;.$.Q.mXVX8.6.+.-.-.$.$.o.0.1.$.$.$.&.&.&.$.$.$.$.$.$.$.$.$.$.$.$.$.$.$.",
"$.#.K.jXsXt.;.' nXBXjXr.:.2.&.X.$.i.gXMXCXCXMXMXMXbXvXtXvXlX3.| -.$.+. .0.g.zXkXdX5.$.$.$.$.$.+.O.$.$.$.$.$.&.$.$.$.$.$.",
"G.' u.J.<.| =.@.e.p.9.^.gXgXyXmXbXvXvXcX).).Y.Y.{.].+X&X`.yXa...*.$. .$.q.zXrXuXvXvXzXlXkXQ.2.+.$.$.$.$.$.$.$.&.$.$.$.$.",
";.| | 2.' | =.@. .|  .cX).@X{..X`..X+X#XqX7X%X%X$X<X>X:X.XOXkX2.-.$.O.$.kXqXwX&X&X%X#X#XeXiXiXyXkX!.K.i.2.$.&.#.$.$.$.$.",
"O.$.&.@.$.&.$.| *.+.*./.L.5XZ.S.A.-X2X4X$X X$X$X:X*XA.S.Z. XyXdX-.&.3.gX@X7X1X,X1X2X4X4X4X$X.X$X@XqXuXvXyXfX3.$.$.$.$.$.",
":.8.6.O.+.&.2.<.X.>.5.u.).@X5XS.-X*X*X<X|.C.}.:X<X<X-X-XZ. X{.yX-.6.kXY.7XoX>X>X3X2X4X4X4X4X&XpX4X%XeXtX(._.2.$.$.$.$.$.",
"$.$.+.$.$.$.$.$.| $.&.-.kXU.wXXX-X>X>X-X=X;X;XXX<X*X*XC.}.oX7X#XkXkXeXwX0X,X:X3X2X4X4X4X4X4X1X4X&XpXiXrX_.8.&.$.$.$.$.&.",
"$.$.$.$.$.$.$.$.$.$.&.5.i.).#X4X*X*X-XB.|.oXZ.}.$X2X3X2X1XoX].`.OXU.wXpX}.,X0X4XwX&X&X&X1X,X9XXX1X7XrXI.f.&.$.$.$.$.&.&.",
"$.$.$.$.$.$.$.+.| $.&.$.&.yX(.wX$X,X;X|.5X$X8X,XXX[.N.~ P G 6 8 . X A U N.=X%X&XwXwX&X4X1X,X,X,X$XiX).Q.$.&.$.+.$.$.$.$.",
"$.$.$.$.$.$.$.$.$.$.#.&.%.a.rXqX&X,XC.D.'.`.Y M g s p p a 0 i - @ > , 9 1 a I ( [.2X4X4X2X3X3X:XpXU.!.X.$.$.$. .X.$.$.$.",
"$.$.$.$.$.$.$.$.$.$.$.$.&.$.zXL.Q R z z a 2 7 1 a s s s a h y e O @ r t g g 1 1 7 j Y '.<X2X3XpXOX/.$.+.$.&.#.+.| | $.$.",
"$.$.$.$.$.$.$.$.$.$.$.$.$.dX6XU.T z 7 1 a k g j a s s a a h Z w O + r h 7 f f f z 7 1 1 g j Q L._.i.+.$.$.$.$.X.| +.+.+.",
"$.$.+.$.$.$.$.$.$.$.$.$.dX/.w.c.m.m.n.Y g p 7 g f a a f p h y w + + 9 0 a z 7 7 7 7 h b ! ( ].@X/.$.+.$.&.&.$.$.+.$.$.$.",
"$.$.$.$.$.$.$.$.$.$.$.h.w.w.w.B.m.V.'.N.) R g 7 a a f f 1 k j ; + - 6 7 1 7 7 x B k.].:X<X3X,XoX6Xf.$.$.&.-.$.$.$.#.$.$.",
"&.$. . . .+.$.*.3.#.h.P.k.j.j.B.) ) ) B.B.B.v.R m a p a g h 9 ; o o : x P ~ [.:X;X,X9X,X:X=X;X|.@X!.$.-.&.&.$.2.$.$.$.$.",
"$.+.$.$.+.+.$.$.H.sXP.c.l.z.! z.'.'.'.M.x.k.B.n./ ~ k g 9 7 < < 7 N m.:X1X1X2X1X,X}.D.;X,X,XC.9X X6X8.;.&.&.&.-.$.$.$.$.",
"$.$.$.+.$.$.-.$.h.L.w.M.z.z.x.) ) ) N./ l.x.l.l./ [.[.( L ^ [..XoX0X1X,X:X=X:X:X,X,X;X;X,X:X;X;X5X%XQ.$.$.$.$.$.$.$.$.$.",
"$.-.-.$.-.-.$.h.L.( B.x.k.v.N.) ) ) N.n.x.x.k.V.n.( '.+XK 4X1X,X,X;X|.}.,X3X=X:X:X=X|.|.8XoXoX|.oX%X~.$.O.$.+.+.$.$.$.$.",
"$.$.$.*.$.-.5.I._ ].v.l.k.M.n.'.B.N.N.N.l.l.x.l.'.'.'.u   '.4XXX|.;X;X,X,X=X,X;X>X:X,XoXoXoXoX1X,X7XY.f.$.$.$.$.$.$.$.+.",
"*.-.$.$.$.$.o.a.)._ m.x.k.M.n.( '.'.) M.M.l.M.v.( +XA . o G 1X,X;XD.;X;X<X,XD.;X>X:X:X,XoX|.oX<X:X$X7X!.5.&.&.&.#.$.$.$.",
"$.$.$. .$. .$.$.f.~.Q c.M.k.v.m.`.'.M.! M.M.v.c.+XG . = ; , .X,X;X;X;X;X:X:XD.;X<X<X$XoX|.;X:X>X>X>XZ.W.f.&.&.2.$.$.$.$.",
"-.$. . . . .$.-.[ H.E.I.`.V.M.v.v.b.v.z.B.) n.[.K X + + + : ( 1X:X;X;X;X,X,X;X;X:X<X2X:X;XD.-X-X>X>XZ. X!.$.$.$.$.$.$.$.",
"+.+.+.| #.-.$.+.&.$.2.^.U._ n.B.l.V.c.V.M.M.'.U o = - + + y b :X,X;X=X;XoX,X;X;X:X$X1X:XD.D.-X-X*X;XD.5XW.f.5.t.&.$.$.$.",
"8.$. .$.&.#.2.6.&.$.$.$.h.)._ n.b.k.c.V.) B.Y + ; ; + O > y < ].1X:X}.,X;X,X;X;X1X<X<X:XD.S.S.>X:X$X@X@XY.f.-.X.$.$.$.$.",
"u.:. .&.&.$.:.7.$.&.$.$.$.&.W.L.b.c.b.b.N.W : ; ; q O @ @ Z < ( <X,X=X,X,X;X;X;X:XoX:X;XS.;X;XoX%XqX~.h.=.@.@.*.$.$.$.$.",
">.#.$.@.=.&.#.:.$.$.$.$.$.$.$.1.w.n.x.v.Q y , , > q q O w y u k +X<X1X=X;X;X>X>X:X:X;X;X;X;XoX7X~.s.X.$.+.@.@.+.$.$.$.$.",
"O.;.;.O.@.=.;.+.$.$.$.$.$.$.$.$.e B B.l.e e y , w > > > + S A 2 '.1X3XoX|.;XD.;X:X:XXX:X,X XL.!.X. .X.5.>.2.$.$.$.$.$.$.",
"O.;.&.#.| $.&.+.X.$.$.$.$.$.$.&.X.6 x 0 w V w 4 w , w > ; A k k Y 2X1X1X|.;XD.D.=X1X2XXXm.Q e f. .X.2.<.>.>.2.5.$.$.+.$.",
"@.X.t.d.d.e.| @.$.$.$.$.-.$.&.$.$.H < 0 Z V e 5 5 , , ; ; A A k j [.4XXX|.Z.Z.;X3X<X) Y n T S i.$.$.$.$.-.-.$.X.$.$.$.$.",
"+...R.jXjXd.] 6.$.+.$.#.&.$.$.&.$.4 c 0 2 Z 5 5 r , , : < k h b h n.8X;X,X,X;XV.^ Y L M N N D i.X.*. .@.=.*.$. .$.$.$.$.",
">.r.jXAXZXE.} =.-.&.$.$.$.$.X. .$.C 8 c h 2 t r r 3 3 : : v c c d P 1X,XoXN.R P L L ! m M R D &.#.$.$.$.$.+.X.+.$.+.$.$.",
"$.t.E.jXhXs.} =.2.&.$.$.$.$.$.+.$.V Z 0 j j u y 8 6 6 3 3 v F n x z M.N.R I G U L ! B m m J D +.&.&.$.-.$.$.$.$.$.$.$.$.",
"$.5.i.y.e...+.=.&.&.#.$.$.$.$.| #.&.C u 6 b k u t 6 6 3 3 F F n N x m m b Y R R L P m M N E { $.2.-.&.-.$.&.$.$.$.$.$.$.",
" .$.*. . .$.@.+.&.&.$.$.$.$.$.+.6.#.2.C 9 t Z Z i t r 6 r G K G n M M I I I B N U U U J H S X.$.&.$.&.$.$.$.#.$.$.$.$.$.",
"$.$. .*.*.+.$.-.&.$.$.+.&.$.$.$.$.$.$.$.C r i A i u u 2 9 G P P U Y L P ~ m B B J E S S l ..$.$.$.$.$.$.$.$.| $.$.$.$.#.",
"8.X.| $.$. .$.8.$.$.#.$.$.&.$.$.$.$.$.$.%.e 0 0 i A Z u j x P P Y W Y Y B m m c E S V D #.$.$.$.$.$.$.$.$.+.$.+.$.$.$.$.",
"-.$.X.$.$.X.$.-.$.$.$.$.$.$.$.$.O.$.$.$.$.$.4 3 Z Z u 2 7 R M P Y Q W P n n H E V # >.$.$.$.$.$.&.#.$.$.$.O.$.+.$.$.$.$.",
"+.*.;.-.$.-.$. .$.$.+.$.&.$.$.X.$.$.$.O.$.$.&.4 e t k 6 a P R I P P J J H H e # { 5.&.$.$.$.$.$.5.$.&.&.$.$.$.$.$.+.$.$.",
"+.$.+.$.| $.$.$.| +.$.$.$.| O.| =.] T.fX4.O.G.:.$ 3 0 0 j R P J N n S S l # D 2.$.$.$.$.+.$.$.$.O.=.p.s.=.*.e.;.$.$.$.$.",
"$.$.$.$.$.$.$.+.|  .+.$.$.$.X.| | e.jXNXJ.O.$.3...% e 0 S K W K T H e # * <.#.#.$.$.$.$.$.$.$.$.$.O.>.e.@.+.e.@.$.$.$.$.",
"$.$.$.$.$.$.| +. .+.$.#.$.$.+.O.O.4.fXhX4.] O.2.5.-.& l r H F F l $ & ,.| #.2.$.$.$.$.$.$.$.$.$.7.+.$.5.@.*.8.*.$.+.$.$.",
"+.+.O.$. .O.$.| $.$.&.$.$.$.$.$.;. .r.r...| +.$.6.5.-.& C H v 4 l 7.$.X.#.3.#.2.$.$.$.$.$.$.$.$.u.+.*.=.+.+.5.$.$.$.$.$.",
"| | $.#.$.&.#.&.$.+.$.$.$.$.$.$.&.| ..4.6.5.&.| $.X.$.2.% V q.F.q.9.5.#.#.6.#.%.$.$.$.$.$.$.$.$.>.X.@.=.X.>.$.| $.$.$.$.",
"+.+.$.&.&.-.6.-.$.$.$.$.$.$.$.$.#.&.5.&.2.$.#.$.#.O.$.#.#.$.q.g.q.1.X.#.#.#.#. .$.$.+.$.+.$.$.$.X.7.@.;.Q.R. .+.$.$.$.$.",
"$.$.&.&.-.$.$.+.$.$.$.$.$.$.$.$.X.6.@.O.| } | 6.H.#.X.X.$.#.X.1.-.$. . .#.$.X.X.$.$.$.$.+.$.$.$.*.a.O.4.nXjX&.$.$.$.$.$.",
" .$.$.$.+.| | ] $.$.$.+.| $.O.$.2.G.G.@.6.6.$.&.[ | } o.-.6.$.| #.| | #.2.5.-.X.$.$.$.$.$.$.$.$.O.a.' e.ZXmX-.$.$.$.$.$.",
"$.+.$.$. .$.$.$.$.$.$.$.$.$.$.$.#.$.$.$.$.$.$.$.+.$.$.$.$.$.$.$.$.X.$.$.$.$.$.&.X.X.G.=.O.6.&.+.$.$.+.+.+.+.| O.$.$.$.$.",
"$.$.+.X.#.$.$.+.$.$.$.$.$.$.$.$.$.$.$.$.$.$.$.$.$.$.$.$.$.$.$.$.$.$.$.$.$.&.$.$.5.| O.+...:.$.+.$.$.$.+.| +.$.+.$.$.$.$.",
"+.$.$.#.+.$.| $.$.$.$.$.$.$.$.$.$.$.$.$.$.$.$.$.$.$.$.$.$.$.$.$.$.$.$.$.$.$.&.$.9.+.X.d.R.e.$.=.$.&.$.$.$.$.$.$.$.$.$.$.",
"$.$.$.+.$.$.$.$.+.$.$.$.$.$.$.$.$.$.$.$.$.$.$.$.$.$.$.$.$.$.+.$.+.+.$.$.$.$.$.$.6.+.<.hXmXR.$.+.5.&.&.$.$.$.$.$.$.$.$.$."
};
