/* XPM */
static char *result[] = {
/* columns rows colors chars-per-pixel */
"60 60 227 2 ",
"   c #020102",
".  c #090607",
"X  c #070904",
"o  c #0A0C04",
"O  c #05040B",
"+  c #0B070B",
"@  c #0C0B0D",
"#  c #120A08",
"$  c #111503",
"%  c #13150B",
"&  c #181B0B",
"*  c #000211",
"=  c #0E0C10",
"-  c #000519",
";  c #110D12",
":  c #141215",
">  c #1A1716",
",  c #161418",
"<  c #191519",
"1  c #1C1A1C",
"2  c #31110C",
"3  c #211E1F",
"4  c #1C2403",
"5  c #1F250C",
"6  c #232C04",
"7  c #232B08",
"8  c #2A3404",
"9  c #2A3606",
"0  c #36350D",
"q  c #232517",
"w  c #2C3216",
"e  c #353B15",
"r  c #051D2B",
"t  c #141924",
"y  c #1E1C21",
"u  c #201E21",
"i  c #1B2427",
"p  c #242224",
"a  c #282525",
"s  c #2A2A24",
"d  c #272428",
"f  c #282629",
"g  c #252A2D",
"h  c #2C2B2C",
"j  c #332C25",
"k  c #312E2D",
"l  c #2F3124",
"z  c #363A23",
"x  c #32302E",
"c  c #2D2C31",
"v  c #312E31",
"b  c #353334",
"n  c #393636",
"m  c #3D3A34",
"M  c #393738",
"N  c #3D3A3B",
"B  c #52361B",
"V  c #543129",
"C  c #413E3E",
"Z  c #6A362D",
"A  c #364406",
"S  c #3C4D04",
"D  c #3C431A",
"F  c #3B4324",
"G  c #425406",
"H  c #4A5907",
"J  c #415309",
"K  c #424E1B",
"L  c #465613",
"P  c #4C6207",
"I  c #526A08",
"U  c #5A7406",
"Y  c #5E7906",
"T  c #526518",
"R  c #5D7317",
"E  c #627E08",
"W  c #4D5826",
"Q  c #4D562E",
"!  c #43423F",
"~  c #494D39",
"^  c #554831",
"/  c #6D5E3D",
"(  c #5A6A26",
")  c #667829",
"_  c #657531",
"`  c #423F41",
"'  c #444342",
"]  c #494746",
"[  c #4C4A47",
"{  c #4D4B4B",
"}  c #514E4E",
"|  c #4F504D",
" . c #52514E",
".. c #595749",
"X. c #555452",
"o. c #5A5955",
"O. c #5A5858",
"+. c #605F5E",
"@. c #5F654B",
"#. c #63684E",
"$. c #706044",
"%. c #6C7944",
"&. c #68645A",
"*. c #646462",
"=. c #686765",
"-. c #6C6B69",
";. c #747371",
":. c #874337",
">. c #82775D",
",. c #8A7C60",
"<. c #688508",
"1. c #6D8B09",
"2. c #788B09",
"3. c #779906",
"4. c #749509",
"5. c #779A09",
"6. c #7A9C0B",
"7. c #6B8714",
"8. c #758913",
"9. c #749114",
"0. c #7EA502",
"q. c #7EAC02",
"w. c #7EA20A",
"e. c #7DB908",
"r. c #7BBA17",
"t. c #758C2F",
"y. c #86A506",
"u. c #85AD04",
"i. c #8AAE05",
"p. c #81A60A",
"a. c #85AC0C",
"s. c #8BAE0B",
"d. c #91AC07",
"f. c #92AD0C",
"g. c #9BAA0D",
"h. c #85B301",
"j. c #8AB205",
"k. c #85BA07",
"l. c #8DB903",
"z. c #85B30B",
"x. c #8CB40A",
"c. c #84BB0D",
"v. c #8DB90B",
"b. c #91B605",
"n. c #92BB04",
"m. c #92B40C",
"M. c #91BA0D",
"N. c #82A414",
"B. c #85AB12",
"V. c #8AAE13",
"C. c #86AA1C",
"Z. c #8AAD1C",
"A. c #95AC16",
"S. c #9EAD12",
"D. c #8DB312",
"F. c #87B815",
"G. c #8DB21B",
"H. c #91B613",
"J. c #9CB615",
"K. c #92BA14",
"L. c #92B61A",
"P. c #94B91B",
"I. c #A1A80C",
"U. c #ACB115",
"Y. c #A2B419",
"T. c #A6B618",
"R. c #8DAE23",
"E. c #8AAB28",
"W. c #8DB123",
"Q. c #8FB52A",
"!. c #92B623",
"~. c #96BB22",
"^. c #94B62B",
"/. c #9BBD2C",
"(. c #8AA632",
"). c #90B237",
"_. c #94B534",
"`. c #93B43C",
"'. c #98BA3A",
"]. c #BEB82A",
"[. c #CBBB2B",
"{. c #D2B436",
"}. c #97C20B",
"|. c #88C119",
" X c #96C117",
".X c #91C123",
"XX c #9FC33E",
"oX c #A5C537",
"OX c #94AE4F",
"+X c #9BBA44",
"@X c #96B053",
"#X c #A1BA49",
"$X c #A1BF5F",
"%X c #878271",
"&X c #A89366",
"*X c #CCAA70",
"=X c #A3C44B",
"-X c #A6C555",
";X c #BDCA5F",
":X c #B0CA66",
">X c #BBDC69",
",X c #B2CB77",
"<X c #BBD679",
"1X c #E4C076",
"2X c #C4E37E",
"3X c #9A9893",
"4X c #A19E86",
"5X c #B6AA8C",
"6X c #ABAA91",
"7X c #B8B297",
"8X c #B8B1A4",
"9X c #C8BA95",
"0X c #B8CB8D",
"qX c #C5D88C",
"wX c #D3C996",
"eX c #C6D99A",
"rX c #CCEB84",
"tX c #CDE595",
"yX c #C7D8A3",
"uX c #D0D1B5",
"iX c #E0D6AF",
"pX c #D3E6B4",
"aX c #EEE0B4",
"sX c #FFF7B8",
"dX c #E6EAC5",
"fX c #E8FACA",
"gX c #F9F0C5",
/* pixels */
"x.x.x.x.x.x.x.x.v.i.x.x.x.M.v.x.x.x.x.s.x.x.x.x.x.x.x.x.M.x.x.x.j.z.j.j.x.x.x.x.M.0.`.qXtX-XC.K.x.x.x.x.x.x.x.x.x.x.x.x.",
"x.x.j.x.x.x.x.x.x.x.i.x.x.v.x.x.v.x.x.x.v.m.v.s.x.x.x.x.x.x.x.x.j.x.x.x.x.i.x.z.n.u.w.+X=X_.B.j.x.x.x.x.x.x.x.j.x.x.x.x.",
"x.x.x.x.x.x.x.x.x.x.x.x.x.x.x.i.x.x.x.x.v.x.x.x.x.x.x.v.x.v.x.i.x.x.j.x.x.x.j.x.l.j.F.a.a.v.M.j.x.x.x.x.x.x.x.x.x.x.x.x.",
"x.x.x.x.x.x.x.j.v.m.x.x.x.x.x.x.x.x.x.j.x.x.x.x.j.x.x.x.x.x.x.x.u.x.i.x.x.x.x.x.j.M.M.j.j.M.}.x.x.x.j.x.x.x.x.x.x.j.x.x.",
"j.x.x.x.x.x.x.x.x.v.D.x.x.x.x.x.v.x.x.x.x.x.x.x.x.x.x.x.x.x.x.x.u.j.x.x.x.x.v.v.a.x.x.n.l.x.x.D.x.x.x.x.x.j.v.x.x.x.x.x.",
"x.x.x.x.x.x.j.x.x.v.v.x.x.i.x.x.x.x.j.x.x.v.x.x.x.x.x.v.x.v.x.x.u.u.u.j.x.x.M.v.G.z.a.x.x.i.i.D.j.x.x.x.x.x.x.x.x.x.x.x.",
"x.x.x.x.x.x.x.v.i.x.v.x.x.u.x.v.v.x.x.x.x.x.x.x.x.x.x.x.x.x.x.s.s.x.i.x.s.x.z.x.D.D.x.x.x.x.v.l.x.x.x.x.j.x.x.x.x.j.x.x.",
"x.x.x.x.x.x.x.x.x.i.v.x.x.x.v.v.x.x.x.s.x.M.x.x.j.x.M.x.x.x.x.x.v.v.x.x.j.x.j.j.j.n.K.z.x.M.n.h.x.x.x.x.x.x.x.x.x.x.x.x.",
"u.l.l.j.K. XM.u.OX+XZ.u.}.M.u.P.x.x.x.x.x.x.x.x.n.0.`.qX2X'.u.l.s.x.c.k.j.v.v.c.i.u.j.x.x.x.x.x.x.z.x.K.L.v.x.x.x.x.x.x.",
"x.D.G.N.N.B.v.m.0XtX:XZ.K.v.0.a.x.j.x.z.x.j.a.x.n.D._.=X=X~.x.l.m.v.v.z.i.f.j.u.x.x.x.x.x.x.x.x.j.x.P.P.H.x.x.x.x.x.x.x.",
"x.G.XX=X_.C.D.h.uXfXtX'.Z.K.x.z.j.j.j.j.w.y.j.x.K.P.G.N.C.P.K.j.m.M.x.j.m.Y.d.i.x.w.B.M.v.x.x.x.x.D.P.D.x.v.x.x.x.x.x.x.",
"x.z.=X>X=XW.l.q.0XtX<XE.B.D.v.v.x.z.x.j.6 D 1.v.x.B.x.u.u.v.D.q.m.x.j.x.Y.U.T.g.U q U v.i.x.j.a.K.K.x.x.x.x.x.v.x.x.x.x.",
"M.y.W.XXC.u.n.l.R./.J.i.u.j.h.j.x.s.v.E a h ' _ 5.i.j.l.l.x.a.a.s.j.j.y.S.].8.W h h A x.a.j.j.x.P.D.x.x.x.x.x.x.x.x.x.x.",
"}.u.u.D.0.h.n.l.i.u.j.b.l.l.l.j.v.x.v.J h q N O.~ U j.x.l.j.x.a.x.x.j.j.f.H [ [ : p z 5.x.i.D.D.x.x.j.x.x.x.x.x.x.x.x.x.",
"z.x.v.l.x.x.x.u.b.i.b.M.m.v.M.v.x.D.s.D h ! h h *.O.J x.a.4.E 4 H B.v.3.K +.{ X b f s Y x.D.K.x.x.x.x.x.x.x.x.v.x.x.x.x.",
"p.P.M.j.l.H.D.Z.f.V.H.Z.p.x.K.v.i.x.6.z p ' `   1 *.=.8 Q O.*.O.%X@.I ~ -.}   f ] s a R x.x.D.x.x.x.x.x.x.x.x.v.x.x.j.x.",
"x.x.x.x.x.x.x.x.i.x.x.x.v.x.x.j.G.v.9.m a ' ' ;   p o.-.;.X.}  .=.=.N -.|   O h [ k h _ x.a.x.x.v.x.x.x.M.x.x.x.x.x.x.M.",
"x.x.x.x.x.x.x.x.x.x.x.M.v.x.x.i.D.P.9.! h [ N     p N O.' i b v f h  .[ h 1   u } N ` ( L.D.x.x.v.x.x.x.x.v.x.x.x.x.v.v.",
"j.x.x.x.x.x.x.x.i.x.x.v.x.x.x.x.a.D.(.N a k h ]  .] N f b C N N C M M N `  .{ v h k v %.D.x.x.x.x.x.x.x.x.x.x.x.x.x.x.x.",
"x.x.x.x.j.x.j.x.x.x.x.M.D.x.x.v.z.K.9.l p a  .{ C M b N M b b n b M M b b N '  .n , h T x.x.D.m.x.s.i.i.x.v.x.j.j.x.x.x.",
"x.x.x.x.x.x.x.x.x.x.x.x.x.x.K.P.v.D.a.w < b M h b b b b n n n n b b b M b b c N [ 3 : Y x.x.x.v.x.i.x.i.x.x.x.i.u.j.x.x.",
"x.x.x.x.x.x.x.x.x.x.x.x.x.L.P.H.D.B.p.6 h n b b b b b b b b b b b b b b b b ' ] N b % Y j.0.x.x.v.x.x.x.x.x.x.j.u.i.u.x.",
"x.x.x.j.x.x.x.x.x.x.x.x.L.K.D.v.a.J z X.' h b N b v b b b b v b b b b b v N ' N h b X.~ 9 1.x.x.v.x.x.x.v.H.x.x.j.j.x.x.",
"x.x.x.x.x.x.x.x.v.v.x.D.L.v.x.D.u.I q v v h 1 - c N b v c v v c v v c h ' ] d * a h b h 8 a.v.v.v.x.x.x.x.v.v.x.x.x.x.x.",
"x.x.i.i.u.i.x.m.K.D.m.S.J.K.F.r.E 9 o ' ` c j B #   d C v h h c h h n '     2 B g N C , 4 P p.x.s.x.x.D.M.x.x.D.x.x.x.x.",
"m.j.x.i.j.x.j.x.|..X~.M.m.m.x.a.1.9.7.[ M d ^ 1X*X8XX.  t 1 3 a < u r * 3X5X1X&XO n N ( 8.1.6.x.x.x.v.v.v.M.x.M.x.x.x.x.",
"x.j.x.l.x.j.x.m.B.W.F.z.z.j.i.2.P ( t.o.] b   wXsXuX- / ^         # $.0 3XgXsX>.O M [ %.) P U 5.i.x.x.x.x.x.x.x.x.x.x.x.",
"x.m.m.m.m.m.x.x.A.A.F.e.e.h.i.2.Y H   , x M   &.dXiX7XaX,.  V Z y   9XiX5XgX6X  b h 1   5 U <.5.u.u.u.x.x.x.x.i.j.x.x.x.",
"x.x.m.x.x.m.x.x.{.].S.i.k.k.x.m.h.a.H X + p k   ..4X6X%Xm r Z :.i t ..4X7X%X  y d < O 7 1.x.x.x.i.i.j.x.x.i.x.x.x.x.x.x.",
"m.x.x.x.l.x.x.m.{.].I.f.v.v.x.i.x.i.a.A ; u 1 k O       u h t < g h -       h p 1 : $ <.x.a.x.j.v.x.v.D.v.M.v.D.x.j.x.x.",
"x.j.j.j.j.j.j.m.S.g.d.i.j.v.D.x.x.v.4.z O.k p f h k k b h u 1 1 y p h v h k a f p ! C P x.x.x.x.x.x.v.x.M.H.v.M.x.x.x.x.",
"x.m.j.i.i.i.x.m.e.c.v.v.x.z.a.B.D.v.G w e + d h f f p d d p u u d p a d a f s h < o e 8 4.x.x.x.i.x.x.x.x.x.x.i.x.x.x.x.",
"j.j.j.i.z.v.x.j.v.x.m.v.x.x.6.<.x.a.5.x.w.S X , 1 a f f d f f f h f f f f p 1 : 4 E n.w.0.h.h.e.yX,X_.i.j.l.L.!.x.x.x.x.",
"P.v.a.x.x.x.D.L.M.v.x.x.i.x.p.z R x.v.x.x.x.<.A $   p a 1 y 1 < 1 u p < @ X 6 P w.x.a.h.B.`._.0.,X#X~.D.m.l.m.s.j.x.x.x.",
"!.B.u.x.M.x.V.L.x.x.D.x.x.i.x.W *.Y x.i.x.a.x.x.p.( , .                 X U z.x.l.B.N.0._.eXyX#X_.!.L.J.b.l.j.j.j.x.x.x.",
"B.s.l.n.l.x.z.B.x.x.x.v.x.x.l.U -.#.p.x.x.x.x.x.v.F y 1 < < : , , < < p : S x.a.e.R.E.u.oXdXdX;Xu.x.L.H.j.l.b.b.x.x.x.x.",
"j.M.n.j.j.}.M.j.x.x.x.x.x.x.x.4.! X.G x.x.v.x.x.7.= p f p d d a a d f f y $ 6.x.h.).Q.i.J.qXwXT.s.L.V.V.V.D.x.b.x.x.x.x.",
"j.M.x.z.u.h.M.l.i.x.x.x.x.D.x.w.s v $ 3.x.s.D.v.(   p p i y u p p y y p 3 o <.v.l.Q.!.l.j.'.'.i.L.V.H.Z.A.V.V.H.x.x.x.x.",
"j.u.W.+X_.C.u.l.x.x.x.x.v.v.x.a.& f q 4.x.x.R.T 4   , d u 1 d u p : y d :   4 S D.z.x.l.h.G.P.M.m.x.x.l.v.x.x.V.x.x.x.j.",
"l.a.+X<X<X+Xw.M.j.x.x.x.x.x.x.D.5 h > 1.x.Z.K k [ + @ a u + 1 d y = u p @   f : S u.h.M.x.z.K. Xm.j.i.b.b.b.x.i.x.x.x.x.",
"D.(.,XfXpX@Xp.n.D.x.x.x.x.x.x.u.7 u u E x.C.  h ' p + p d + < d , @ p p @ 1 x 1 o 0.x.H.x.j.x.i.x.x.x.x.s.j.i.j.x.x.x.x.",
"x.Z.$X<X:X).y.n.M.v.x.x.x.x.x.i.9 v c L x.4.+ y : y @ y p + ; u = = p y @ y u u = 5.x.L.L.x.x.j.x.v.x.v.x.x.x.x.x.x.x.x.",
"i.m.^.^.R.s.j.n.M.x.x.x.x.x.i.z.I c N x E x.7 d a y + y p ; . u + = p 1   y p p % D.L.~.~.x.x.u.D.M.x.v.x.x.v.x.j.x.x.x.",
"j.m.x.i.i.b.b.j.v.x.x.x.v.x.x.i.6.q N b : S 6 < d y   : u :   : O ; p <   y a 1 9 v.P..X~.x.x.x.m.x.v.x.x.x.x.x.x.x.x.x.",
"x.x.i.b.m.l.j.M.v.x.x.x.x.x.x.x.x.U O , u u ; X < :   ; p :   .   < u ;   > , @ 9.v.x.H.x.x.x.x.x.x.x.x.x.x.z.j.x.x.x.x.",
"L.i.u.v.v.i.s.L.x.x.j.x.x.v.L.!.x.x.Y $ + , ;     X O   1 ,   ;   < 1     .   ) L.m.v.x.x.x.x.x.x.x.x.x.x.j.j.j.x.x.x.x.",
"M.x.s.x.s.i.s.m.v.x.j.x.v.K.P.H.x.a.x.p.I G J S % y : > p >   O   1 y , > : ! Z.v.x.x.H.x.v.x.x.x.x.x.x.x.z.j.x.x.x.x.j.",
"i.b.K.m.D.m.l.u.x.x.i.x.L.P.M.x.x.x.i.i.x.x.x.p.% @ X ; : = 6 P 4 : ; @   ; w N.M.D.v.x.x.x.x.x.M.M.v.x.x.x.x.x.x.x.x.x.",
"j.x.j.x.u.x.x.x.u.j.j.D.P.x.a.u.n.w.OX$XC.0.v.B.7.9 A 8 4 A 5.z.6.A 4 9 W W 7.f.x.x.x.x.x.x.x.x.i.n.!.).n.b.E.m.x.x.x.j.",
"x.x.x.x.x.x.x.j.i.u.D.P.D.j.i.u.h.W.,XrXoXj.l.G.z.y.y.f.N.F.s.f.s.i.p.a.x.B.s.s.x.x.x.x.x.x.x.x.i.l.G.R.b.j.G.b.x.x.x.x.",
"x.x.x.x.x.j.u.j.x.D.L.v.v.x.i.j.h.G.;X>X!.0.j.D.D.s.s.v.v.D.f.I.f.s.D.H.z.z.x.x.x.x.l.x.x.x.x.j.L.j.x.L.j.b.!.b.x.x.j.x.",
"j.i.j.j.u.x.u.j.x.K.H.x.v.x.x.x.M.a.r.E.p.u.j.z.J.H.H.F.c.z.g.U.Y.J.L.V.z.z.D.z.x.x.x.x.x.x.x.x.!.i.b.n.j.b.K.b.x.x.x.x.",
"u.u.i.s.x.x.x.x.x.x.x.x.x.x.x.x.v.a.B.G.K.K.x.u.x.s.x.z.c.x.T.[.T.J.D.x.z.v.F.z.x.x.x.x.x.x.x.x.V.x.l.n.s.D.x.i.x.x.x.x.",
"i.x.v.v.v.H.M.M.x.x.x.x.x.x.x.x.i.v.M.v.D.x.z.x.z.z.m.x.z.x.T.].Y.H.s.x.x.z.z.u.x.x.x.x.x.j.x.x.s.L.b.m.#X+Xi.j.x.x.x.x.",
"x.x.v.v.M.x.x.x.x.x.z.x.j.x.x.x.s.K.l.h.u.y.u.M.|.z.s.s.z.a.s.S.H.x.u.u.x.x.x.i.x.x.x.x.x.x.x.x.l./.i.L.0X<Xv.x.x.x.x.x.",
"j.x.x.x.j.u.u.0.x.x.j.j.j.x.x.x.D.}.}.l.K.K.x.M.e.u.y.d.H.K.x.i.s.u.a.z.D.K.f.s.j.x.x.x.x.x.x.j.j./.0.Z.pXeXm.x.j.x.x.x.",
"x.x.x.i.x.z.j.i.x.x.x.x.x.x.x.x.x.x.x.x.x.x.x.x.x.x.x.x.x.x.j.x.x.x.x.x.x.x.v.x.s.s.}.n.h.K.K.j.x.j.j.j.a.j.j.i.x.x.x.x.",
"x.j.x.x.j.x.x.x.x.x.x.x.x.x.x.j.x.x.x.x.x.x.x.x.x.j.x.x.x.x.x.x.x.x.x.x.x.x.x.x.H.u.l.j.p.V.j.l.x.x.x.x.j.i.j.j.x.x.x.x.",
"x.i.z.j.x.x.x.j.x.x.x.x.x.x.x.j.x.x.x.x.x.x.x.x.x.x.x.x.x.x.x.x.x.x.x.x.x.x.x.x.J.i.y.'.+XE.x.l.M.x.x.i.x.j.x.x.x.x.x.x.",
"x.x.x.x.x.u.x.x.x.x.x.x.x.x.x.x.x.x.x.x.j.x.x.z.j.x.x.x.x.x.x.x.j.j.x.x.x.x.v.x.K.l.Z.,XqX+Xx.l.H.v.v.x.x.x.x.x.x.x.x.x."
};
